<svg width="31.218750" height="27.750000" viewBox="0 0 31.2188 27.75" fill="none" xmlns="http://www.w3.org/2000/svg" xmlns:xlink="http://www.w3.org/1999/xlink">
	<desc>
			Created with Pixso.
	</desc>
	<defs/>
	<path id="Vector" d="M30.15 27.75C30.74 27.75 31.21 27.27 31.21 26.68L31.21 1.06C31.21 0.47 30.74 0 30.15 0L11.47 0C10.88 0 10.4 0.47 10.4 1.06L10.4 26.68C10.4 27.27 10.88 27.75 11.47 27.75L30.15 27.75ZM20.23 1.15L20.23 26.59L11.56 26.59L11.56 1.15L20.23 1.15ZM21.39 26.59L21.39 1.15L30.06 1.15L30.06 26.59L21.39 26.59Z" fill="#F0F0F0" fill-opacity="1.000000" fill-rule="evenodd"/>
	<path id="Vector" d="M5.78 9.25C5.78 10.84 4.48 12.14 2.89 12.14C1.29 12.14 0 10.84 0 9.25C0 7.65 1.29 6.35 2.89 6.35C4.48 6.35 5.78 7.65 5.78 9.25ZM4.62 9.25C4.62 10.2 3.84 10.98 2.89 10.98C1.93 10.98 1.15 10.2 1.15 9.25C1.15 8.29 1.93 7.51 2.89 7.51C3.84 7.51 4.62 8.29 4.62 9.25Z" fill="#F0F0F0" fill-opacity="1.000000" fill-rule="evenodd"/>
	<path id="Vector" d="M5.78 18.5C5.78 20.09 4.48 21.39 2.89 21.39C1.29 21.39 0 20.09 0 18.5C0 16.9 1.29 15.6 2.89 15.6C4.48 15.6 5.78 16.9 5.78 18.5ZM4.62 18.5C4.62 19.45 3.84 20.23 2.89 20.23C1.93 20.23 1.15 19.45 1.15 18.5C1.15 17.54 1.93 16.76 2.89 16.76C3.84 16.76 4.62 17.54 4.62 18.5Z" fill="#F0F0F0" fill-opacity="1.000000" fill-rule="evenodd"/>
</svg>
