<svg width="35.625000" height="30.062500" viewBox="0 0 35.625 30.0625" fill="none" xmlns="http://www.w3.org/2000/svg" xmlns:xlink="http://www.w3.org/1999/xlink">
	<desc>
			Created with Pixso.
	</desc>
	<defs/>
	<path id="Vector" d="M23.75 0.57C23.75 0.25 24.01 0 24.34 0L35.03 0C35.35 0 35.62 0.25 35.62 0.57L35.62 6.35C35.62 6.67 35.35 6.93 35.03 6.93L30.87 6.93L30.87 10.98C30.87 11.3 30.6 11.56 30.28 11.56L26.12 11.56L26.12 15.6C26.12 15.92 25.85 16.18 25.53 16.18L21.37 16.18L21.37 20.23C21.37 20.55 21.1 20.81 20.78 20.81L16.62 20.81L16.62 24.85C16.62 25.17 16.35 25.43 16.03 25.43L11.87 25.43L11.87 29.48C11.87 29.8 11.6 30.06 11.28 30.06L0.59 30.06C0.26 30.06 0 29.8 0 29.48L0 23.7C0 23.38 0.26 23.12 0.59 23.12L4.75 23.12L4.75 19.07C4.75 18.75 5.01 18.5 5.34 18.5L9.5 18.5L9.5 14.45C9.5 14.13 9.76 13.87 10.09 13.87L14.25 13.87L14.25 9.82C14.25 9.5 14.51 9.25 14.84 9.25L19 9.25L19 5.2C19 4.88 19.26 4.62 19.59 4.62L23.75 4.62L23.75 0.57ZM29.68 5.78L34.43 5.78L34.43 1.15L24.93 1.15L24.93 5.78L20.18 5.78L20.18 10.4L15.43 10.4L15.43 15.03L10.68 15.03L10.68 19.65L5.93 19.65L5.93 24.28L1.18 24.28L1.18 28.9L10.68 28.9L10.68 24.28L15.43 24.28L15.43 19.65L20.18 19.65L20.18 15.03L24.93 15.03L24.93 10.4L29.68 10.4L29.68 5.78Z" fill="#F0F0F0" fill-opacity="1.000000" fill-rule="evenodd"/>
</svg>
