<svg width="23.750000" height="34.833740" viewBox="0 0 23.75 34.8337" fill="none" xmlns="http://www.w3.org/2000/svg" xmlns:xlink="http://www.w3.org/1999/xlink">
	<desc>
			Created with Pixso.
	</desc>
	<defs/>
	<path id="Vector" d="M10.09 14.25C9.76 14.25 9.5 14.51 9.5 14.84L9.5 20.78C9.5 21.1 9.76 21.37 10.09 21.37C10.42 21.37 10.68 21.1 10.68 20.78L10.68 14.84C10.68 14.51 10.42 14.25 10.09 14.25Z" fill="#F0F0F0" fill-opacity="1.000000" fill-rule="nonzero"/>
	<path id="Vector" d="M0 29.98C0 30.51 0.34 30.97 0.85 31.12L13.49 34.8C13.87 34.92 14.25 34.63 14.25 34.23L14.25 30.87L22.56 30.87C23.21 30.87 23.75 30.34 23.75 29.68L23.75 1.18C23.75 0.53 23.21 0 22.56 0L1.18 0C0.53 0 0 0.53 0 1.18L0 29.98ZM1.18 1.71L13.06 6.16L13.06 33.44L1.18 29.98L1.18 1.71ZM22.56 29.68L14.25 29.68L14.25 6.16C14.25 5.67 13.94 5.22 13.47 5.05L3.16 1.18L22.56 1.18L22.56 29.68Z" fill="#F0F0F0" fill-opacity="1.000000" fill-rule="nonzero"/>
</svg>
