<svg width="28.500000" height="28.500000" viewBox="0 0 28.5 28.5" fill="none" xmlns="http://www.w3.org/2000/svg" xmlns:xlink="http://www.w3.org/1999/xlink">
	<desc>
			Created with Pixso.
	</desc>
	<defs/>
	<path id="Vector" d="M4.75 5.93C4.75 5.28 5.28 4.75 5.93 4.75L22.56 4.75C23.21 4.75 23.75 5.28 23.75 5.93L23.75 22.56C23.75 23.21 23.21 23.75 22.56 23.75L5.93 23.75C5.28 23.75 4.75 23.21 4.75 22.56L4.75 5.93ZM5.93 5.93L13.65 5.93L13.65 13.65L5.93 13.65L5.93 5.93ZM5.93 14.84L5.93 22.56L13.65 22.56L13.65 14.84L5.93 14.84ZM14.84 14.84L14.84 22.56L22.56 22.56L22.56 14.84L14.84 14.84ZM22.56 13.65L22.56 5.93L14.84 5.93L14.84 13.65L22.56 13.65Z" fill="#F0F0F0" fill-opacity="1.000000" fill-rule="evenodd"/>
	<path id="Vector" d="M0 1.18C0 0.53 0.53 0 1.18 0L27.31 0C27.96 0 28.5 0.53 28.5 1.18L28.5 27.31C28.5 27.96 27.96 28.5 27.31 28.5L1.18 28.5C0.53 28.5 0 27.96 0 27.31L0 1.18ZM1.18 1.18L27.31 1.18L27.31 27.31L1.18 27.31L1.18 1.18Z" fill="#F0F0F0" fill-opacity="1.000000" fill-rule="evenodd"/>
</svg>
