<svg width="29.000000" height="24.531250" viewBox="0 0 29 24.5312" fill="none" xmlns="http://www.w3.org/2000/svg" xmlns:xlink="http://www.w3.org/1999/xlink">
	<desc>
			Created with Pixso.
	</desc>
	<defs/>
	<path id="node" d="M4.12 24.03C2.12 24.03 0.5 22.66 0.5 20.98C0.5 19.29 2.12 17.93 4.12 17.93C6.13 17.93 7.75 19.29 7.75 20.98C7.75 22.66 6.13 24.03 4.12 24.03Z" stroke="#FFFFFF" stroke-opacity="1.000000" stroke-width="1.000000"/>
	<path id="node_2" d="M24.87 24.03C22.86 24.03 21.24 22.66 21.24 20.98C21.24 19.29 22.86 17.93 24.87 17.93C26.87 17.93 28.5 19.29 28.5 20.98C28.5 22.66 26.87 24.03 24.87 24.03Z" stroke="#FFFFFF" stroke-opacity="1.000000" stroke-width="1.000000"/>
	<path id="node_3" d="M4.12 6.6C2.12 6.6 0.5 5.23 0.5 3.55C0.5 1.86 2.12 0.5 4.12 0.5C6.13 0.5 7.75 1.86 7.75 3.55C7.75 5.23 6.13 6.6 4.12 6.6Z" stroke="#FFFFFF" stroke-opacity="1.000000" stroke-width="1.000000"/>
	<path id="Vector" d="M7.4 5.68C7.19 5.91 6.94 6.12 6.67 6.3L21.59 18.84C21.8 18.61 22.05 18.4 22.32 18.22L7.4 5.68ZM4.64 7C4.47 7.02 4.3 7.03 4.12 7.03C3.95 7.03 3.78 7.02 3.61 7L3.61 17.52C3.78 17.5 3.95 17.49 4.12 17.49C4.3 17.49 4.47 17.5 4.64 17.52L4.64 7ZM8.24 20.54L20.75 20.54C20.73 20.68 20.72 20.83 20.72 20.98C20.72 21.12 20.73 21.27 20.75 21.41L8.24 21.41C8.26 21.27 8.27 21.12 8.27 20.98C8.27 20.83 8.26 20.68 8.24 20.54Z" fill="#FFFFFF" fill-opacity="1.000000" fill-rule="evenodd"/>
</svg>
