<svg width="27.750000" height="29.687500" viewBox="0 0 27.75 29.6875" fill="none" xmlns="http://www.w3.org/2000/svg" xmlns:xlink="http://www.w3.org/1999/xlink">
	<desc>
			Created with Pixso.
	</desc>
	<defs/>
	<path id="Vector" d="M8.09 8.31L1.15 8.31L1.15 14.25L8.09 14.25L8.09 8.31ZM9.25 8.31L9.25 14.25L18.5 14.25L18.5 8.31L9.25 8.31ZM0 28.5C0 29.15 0.51 29.68 1.15 29.68L26.59 29.68C27.23 29.68 27.75 29.15 27.75 28.5L27.75 1.18C27.75 0.53 27.23 0 26.59 0L1.15 0C0.51 0 0 0.53 0 1.18L0 28.5ZM13.87 1.18L1.15 1.18L1.15 7.12L13.87 7.12L13.87 1.18ZM15.03 1.18L26.59 1.18L26.59 7.12L15.03 7.12L15.03 1.18ZM26.59 8.31L19.65 8.31L19.65 14.25L26.59 14.25L26.59 8.31ZM26.59 15.43L15.03 15.43L15.03 21.37L26.59 21.37L26.59 15.43ZM26.59 22.56L19.65 22.56L19.65 28.5L26.59 28.5L26.59 22.56ZM13.87 21.37L13.87 15.43L1.15 15.43L1.15 21.37L13.87 21.37ZM1.15 22.56L1.15 28.5L8.09 28.5L8.09 22.56L1.15 22.56ZM9.25 22.56L9.25 28.5L18.5 28.5L18.5 22.56L9.25 22.56Z" fill="#F0F0F0" fill-opacity="1.000000" fill-rule="evenodd"/>
</svg>
