<svg width="32.062500" height="35.843750" viewBox="0 0 32.0625 35.8438" fill="none" xmlns="http://www.w3.org/2000/svg" xmlns:xlink="http://www.w3.org/1999/xlink">
	<desc>
			Created with Pixso.
	</desc>
	<defs/>
	<path id="Vector" d="M16.03 26.59C18.65 26.59 20.78 24.52 20.78 21.96C20.78 19.41 18.65 17.34 16.03 17.34C13.4 17.34 11.28 19.41 11.28 21.96C11.28 24.52 13.4 26.59 16.03 26.59ZM16.03 25.43C17.99 25.43 19.59 23.88 19.59 21.96C19.59 20.05 17.99 18.5 16.03 18.5C14.06 18.5 12.46 20.05 12.46 21.96C12.46 23.88 14.06 25.43 16.03 25.43Z" fill="#F0F0F0" fill-opacity="1.000000" fill-rule="evenodd"/>
	<path id="Vector" d="M13.65 2.02C10.41 2.82 7.91 5.27 7.28 8.67L5.34 8.67C4.68 8.67 4.15 9.18 4.15 9.82L4.15 12.14C4.15 12.77 4.68 13.29 5.34 13.29L5.93 13.29L5.93 16.76L3.56 16.76C2.9 16.76 2.37 17.28 2.37 17.92L2.37 19.65L1.18 19.65C0.53 19.65 0 20.17 0 20.81L0 23.12C0 23.76 0.53 24.28 1.18 24.28L2.37 24.28L2.37 26.01C2.37 26.65 2.9 27.17 3.56 27.17L5.93 27.17L5.93 31.21L5.34 31.21C4.68 31.21 4.15 31.73 4.15 32.37L4.15 34.68C4.15 35.32 4.68 35.84 5.34 35.84L26.71 35.84C27.37 35.84 27.9 35.32 27.9 34.68L27.9 32.37C27.9 31.73 27.37 31.21 26.71 31.21L26.12 31.21L26.12 27.17L28.5 27.17C29.15 27.17 29.68 26.65 29.68 26.01L29.68 24.28L30.87 24.28C31.53 24.28 32.06 23.76 32.06 23.12L32.06 20.81C32.06 20.17 31.53 19.65 30.87 19.65L29.68 19.65L29.68 17.92C29.68 17.28 29.15 16.76 28.5 16.76L26.12 16.76L26.12 13.29L26.71 13.29C27.37 13.29 27.9 12.77 27.9 12.14L27.9 9.82C27.9 9.18 27.37 8.67 26.71 8.67L24.77 8.67C24.14 5.27 21.64 2.82 18.4 2.02L18.4 1.15C18.4 0.51 17.87 0 17.21 0L14.84 0C14.18 0 13.65 0.51 13.65 1.15L13.65 2.02ZM14.84 2.91L13.94 3.14C11.21 3.82 9.1 5.84 8.49 8.67L23.56 8.67C22.95 5.84 20.85 3.82 18.11 3.14L17.21 2.91L17.21 1.15L14.84 1.15L14.84 2.91ZM5.34 9.82L26.71 9.82L26.71 12.14L5.34 12.14L5.34 9.82ZM24.93 13.29L7.12 13.29L7.12 17.92L3.56 17.92L3.56 20.81L1.18 20.81L1.18 23.12L3.56 23.12L3.56 26.01L7.12 26.01L7.12 31.21L24.93 31.21L24.93 26.01L28.5 26.01L28.5 23.12L30.87 23.12L30.87 20.81L28.5 20.81L28.5 17.92L24.93 17.92L24.93 13.29ZM5.34 32.37L5.34 34.68L26.71 34.68L26.71 32.37L5.34 32.37Z" fill="#F0F0F0" fill-opacity="1.000000" fill-rule="evenodd"/>
</svg>
