<svg width="30.399902" height="37.483826" viewBox="0 0 30.3999 37.4838" fill="none" xmlns="http://www.w3.org/2000/svg" xmlns:xlink="http://www.w3.org/1999/xlink">
	<desc>
			Created with Pixso.
	</desc>
	<defs/>
	<path id="Vector" d="M24.74 25.91C27.41 22.36 29.13 18.81 29.13 15.2C29.13 7.5 22.89 1.26 15.2 1.26C7.5 1.26 1.26 7.5 1.26 15.2C1.26 18.81 2.97 22.36 5.65 25.91C8.12 29.19 11.3 32.35 14.44 35.46C14.69 35.71 14.94 35.96 15.2 36.21C15.45 35.96 15.7 35.71 15.95 35.46C19.09 32.35 22.27 29.19 24.74 25.91ZM16.85 36.35C23.36 29.9 30.39 22.93 30.39 15.2C30.39 6.8 23.59 0 15.2 0C6.8 0 0 6.8 0 15.2C0 22.93 7.03 29.9 13.54 36.35C13.79 36.6 14.05 36.86 14.31 37.11C14.8 37.6 15.59 37.6 16.08 37.11C16.34 36.86 16.6 36.6 16.85 36.35Z" fill="#F0F0F0" fill-opacity="1.000000" fill-rule="evenodd"/>
	<path id="Vector" d="M21.53 15.2C21.53 18.69 18.69 21.53 15.2 21.53C11.7 21.53 8.86 18.69 8.86 15.2C8.86 11.7 11.7 8.86 15.2 8.86C18.69 8.86 21.53 11.7 21.53 15.2ZM15.2 20.26C17.99 20.26 20.26 17.99 20.26 15.2C20.26 12.4 17.99 10.13 15.2 10.13C12.4 10.13 10.13 12.4 10.13 15.2C10.13 17.99 12.4 20.26 15.2 20.26Z" fill="#F0F0F0" fill-opacity="1.000000" fill-rule="evenodd"/>
</svg>
