<svg width="33.250000" height="28.500244" viewBox="0 0 33.25 28.5002" fill="none" xmlns="http://www.w3.org/2000/svg" xmlns:xlink="http://www.w3.org/1999/xlink">
	<desc>
			Created with Pixso.
	</desc>
	<defs/>
	<path id="Vector" d="M23.92 1.01C23.69 0.78 23.69 0.4 23.92 0.17C24.15 -0.06 24.53 -0.06 24.76 0.17L33.07 8.48C33.16 8.57 33.21 8.68 33.23 8.79C33.24 8.83 33.25 8.86 33.25 8.9C33.25 9.07 33.17 9.22 33.06 9.33L24.76 17.63C24.53 17.87 24.15 17.87 23.92 17.63C23.69 17.4 23.69 17.03 23.92 16.79L31.22 9.5L10.09 9.5C5.17 9.5 1.18 13.48 1.18 18.4C1.18 23.32 5.17 27.31 10.09 27.31L17.21 27.31C17.54 27.31 17.81 27.57 17.81 27.9C17.81 28.23 17.54 28.5 17.21 28.5L10.09 28.5C4.51 28.5 0 23.98 0 18.4C0 12.83 4.51 8.31 10.09 8.31L31.22 8.31L23.92 1.01Z" fill="#F0F0F0" fill-opacity="1.000000" fill-rule="nonzero"/>
</svg>
