<svg width="32.375000" height="28.500244" viewBox="0 0 32.375 28.5002" fill="none" xmlns="http://www.w3.org/2000/svg" xmlns:xlink="http://www.w3.org/1999/xlink">
	<desc>
			Created with Pixso.
	</desc>
	<defs/>
	<path id="Vector" d="M9.08 1.01C9.3 0.78 9.3 0.4 9.08 0.17C8.85 -0.06 8.48 -0.06 8.26 0.17L0.16 8.48C-0.04 8.69 -0.06 9.01 0.1 9.24C0.12 9.27 0.15 9.3 0.17 9.33L8.26 17.63C8.48 17.87 8.85 17.87 9.08 17.63C9.3 17.4 9.3 17.03 9.08 16.79L1.97 9.5L22.54 9.5C27.33 9.5 31.21 13.48 31.21 18.4C31.21 23.32 27.33 27.31 22.54 27.31L15.6 27.31C15.29 27.31 15.03 27.57 15.03 27.9C15.03 28.23 15.29 28.5 15.6 28.5L22.54 28.5C27.97 28.5 32.37 23.98 32.37 18.4C32.37 12.83 27.97 8.31 22.54 8.31L1.97 8.31L9.08 1.01Z" fill="#F0F0F0" fill-opacity="1.000000" fill-rule="nonzero"/>
</svg>
