<svg width="26.706055" height="33.250000" viewBox="0 0 26.7061 33.25" fill="none" xmlns="http://www.w3.org/2000/svg" xmlns:xlink="http://www.w3.org/1999/xlink">
	<desc>
			Created with Pixso.
	</desc>
	<defs/>
	<path id="Vector" d="M7.11 5.93C7.44 5.93 7.7 6.2 7.7 6.53L7.7 18.97C7.7 19.23 7.53 19.46 7.28 19.53C7.03 19.61 6.76 19.51 6.61 19.3C4.93 16.78 3.03 16.61 2.07 17.2C1.58 17.5 1.23 18.04 1.19 18.78C1.14 19.52 1.41 20.5 2.24 21.61C2.91 22.5 3.52 23.34 4.08 24.12C4.16 24.23 4.23 24.34 4.31 24.45C4.78 25.11 5.22 25.72 5.64 26.29C6.63 27.61 7.51 28.69 8.46 29.54C10.32 31.2 12.52 32.06 16.53 32.06C18.23 32.06 19.62 31.66 20.75 30.96C21.88 30.26 22.79 29.23 23.5 27.92C24.92 25.27 25.51 21.53 25.51 17.21C25.51 16.89 25.78 16.62 26.11 16.62C26.44 16.62 26.7 16.89 26.7 17.21C26.7 21.6 26.11 25.58 24.54 28.48C23.76 29.94 22.72 31.14 21.38 31.97C20.04 32.8 18.43 33.25 16.53 33.25C12.31 33.25 9.8 32.33 7.67 30.42C6.62 29.49 5.69 28.34 4.69 26.99C4.26 26.42 3.82 25.8 3.35 25.14C3.27 25.03 3.19 24.93 3.11 24.82C2.55 24.04 1.95 23.21 1.29 22.32C0.34 21.05 -0.06 19.8 0 18.71C0.07 17.61 0.61 16.7 1.45 16.18C2.86 15.32 4.82 15.64 6.51 17.31L6.51 6.53C6.51 6.2 6.78 5.93 7.11 5.93Z" fill="#F0F0F0" fill-opacity="1.000000" fill-rule="nonzero"/>
	<path id="Vector" d="M11.86 2.37C12.18 2.37 12.45 2.64 12.45 2.96L12.45 14.84C12.45 15.17 12.18 15.43 11.86 15.43C11.53 15.43 11.26 15.17 11.26 14.84L11.26 2.96C11.26 2.64 11.53 2.37 11.86 2.37Z" fill="#F0F0F0" fill-opacity="1.000000" fill-rule="nonzero"/>
	<path id="Vector" d="M16.61 2.37C16.93 2.37 17.2 2.64 17.2 2.96L17.2 14.84C17.2 15.17 16.93 15.43 16.61 15.43C16.28 15.43 16.01 15.17 16.01 14.84L16.01 2.96C16.01 2.64 16.28 2.37 16.61 2.37Z" fill="#F0F0F0" fill-opacity="1.000000" fill-rule="nonzero"/>
	<path id="Vector" d="M21.36 5.93C21.68 5.93 21.95 6.2 21.95 6.53L21.95 14.84C21.95 15.17 21.68 15.43 21.36 15.43C21.03 15.43 20.76 15.17 20.76 14.84L20.76 6.53C20.76 6.2 21.03 5.93 21.36 5.93Z" fill="#F0F0F0" fill-opacity="1.000000" fill-rule="nonzero"/>
	<path id="Vector" d="M26.7 11.28L26.7 18.4L25.51 18.4L25.51 11.28L26.7 11.28Z" fill="#F0F0F0" fill-opacity="1.000000" fill-rule="nonzero"/>
	<path id="Vector" d="M9.48 4.75C8.5 4.75 7.7 5.54 7.7 6.53L6.51 6.53C6.51 4.89 7.84 3.56 9.48 3.56C11.12 3.56 12.45 4.89 12.45 6.53L11.26 6.53C11.26 5.54 10.47 4.75 9.48 4.75Z" fill="#F0F0F0" fill-opacity="1.000000" fill-rule="nonzero"/>
	<path id="Vector" d="M14.23 1.18C13.25 1.18 12.45 1.98 12.45 2.96L11.26 2.96C11.26 1.32 12.59 0 14.23 0C15.87 0 17.2 1.32 17.2 2.96L16.01 2.96C16.01 1.98 15.22 1.18 14.23 1.18Z" fill="#F0F0F0" fill-opacity="1.000000" fill-rule="nonzero"/>
	<path id="Vector" d="M18.98 4.75C18 4.75 17.2 5.54 17.2 6.53L16.01 6.53C16.01 4.89 17.34 3.56 18.98 3.56C20.62 3.56 21.95 4.89 21.95 6.53L20.76 6.53C20.76 5.54 19.97 4.75 18.98 4.75Z" fill="#F0F0F0" fill-opacity="1.000000" fill-rule="nonzero"/>
	<path id="Vector" d="M23.73 9.5C22.75 9.5 21.95 10.29 21.95 11.28L20.76 11.28C20.76 9.64 22.09 8.31 23.73 8.31C25.37 8.31 26.7 9.64 26.7 11.28L25.51 11.28C25.51 10.29 24.72 9.5 23.73 9.5Z" fill="#F0F0F0" fill-opacity="1.000000" fill-rule="nonzero"/>
</svg>
